<?xml version="1.0" standalone="no"?><!DOCTYPE svg PUBLIC "-//W3C//DTD SVG 1.1//EN" "http://www.w3.org/Graphics/SVG/1.1/DTD/svg11.dtd"><svg t="1728367180589" class="icon" viewBox="0 0 1193 1024" version="1.1" xmlns="http://www.w3.org/2000/svg" p-id="1581" xmlns:xlink="http://www.w3.org/1999/xlink" width="233.0078125" height="200"><path d="M482.401865 735.895571c-8.831702-1.670862-23.630769-12.412121-28.643357-20.766433-6.444755-10.502564-8.354312-22.914685-5.012587-35.088112 2.625641-9.547786 26.017716-33.894639 271.157109-279.034033C870.280653 250.390676 988.195804 130.565967 988.195804 128.179021c0-3.58042-3.341725-4.057809-35.088112-4.057809h-35.326806L716.083916 325.579487c-221.508625 221.26993-207.664336 209.096503-233.204662 205.277389-13.605594-1.909557-30.075524-16.947319-33.894639-31.030303-3.58042-12.88951-3.58042-216.018648 0-228.908158 2.148252-7.876923 13.844289-20.766434 66.834499-74.234033C551.145921 161.357576 580.027972 130.327273 580.027972 128.179021c0-3.58042-4.535198-4.057809-48.693706-4.057809-54.422378 0-60.151049-1.193473-72.324476-15.276457-20.289044-22.914685-14.799068-50.125874 13.605595-68.98275 5.251282-3.58042 17.902098-4.057809 120.779487-4.057809h114.812121l9.547786 6.922144c15.753846 11.457343 21.005128 20.766434 21.005128 37.236364 0 12.173427-1.193473 15.992541-7.638229 25.062937-4.057809 5.967366-50.125874 53.228904-101.92261 105.025641L534.675991 304.335664v19.334266c0 30.075524 2.386946 48.693706 6.444755 48.693706 1.909557 0 77.098368-73.517949 167.086247-163.505827 114.096037-113.857343 166.608858-164.937995 173.769697-168.27972 9.78648-4.773893 13.128205-4.773893 123.166434-4.296504l113.141258 0.716084 8.593007 5.728671c13.844289 9.547786 19.811655 20.527739 20.05035 37.236364 0 12.88951-0.954779 15.753846-8.831702 26.25641-4.773893 6.68345-126.985548 129.849883-271.395804 274.021445C722.051282 524.173427 603.897436 643.282051 603.897436 644.475524c0 1.432168 14.321678 2.386946 37.475058 2.386947h37.236364l197.161771-197.161772c108.367366-108.606061 201.21958-200.026107 205.993474-203.367832 10.741259-6.922145 30.552914-7.876923 42.248951-1.670862 10.741259 5.489977 21.005128 20.766434 24.108158 36.04289 1.909557 8.593007 2.386946 45.351981 1.909557 113.618648-0.716084 100.729138-0.716084 100.967832-6.444755 111.947786-3.58042 7.399534-26.25641 31.746387-67.311888 72.801864-34.133333 33.894639-61.821911 63.254079-61.821912 64.686248 0 2.386946 11.218648 3.10303 48.455012 3.10303 45.590676 0.238695 48.932401 0.477389 58.957576 5.728671 14.082984 7.160839 24.108159 21.482517 25.540326 36.52028 1.432168 14.799068-6.444755 30.075524-20.527739 40.100699l-10.263869 7.160839h-230.101632l-8.831702-5.967366c-22.914685-15.515152-28.882051-41.294172-14.082983-62.2993 4.057809-5.728671 49.887179-52.99021 101.683916-104.786947l94.523077-94.284382v-36.281585c0-27.449883-0.716084-36.52028-2.864336-36.52028-1.670862 0-76.620979 73.517949-166.608858 163.505828-89.987879 89.987879-167.802331 166.370163-173.053613 169.950582l-9.547785 6.68345-109.799534 0.238695c-60.389744 0.238695-112.425175 0-115.528205-0.716084z" fill="#008700" p-id="1582"></path><path d="M1053.120746 958.358974c-22.437296-6.206061-36.04289-18.618182-47.738928-43.442424-5.967366-13.128205-6.444755-15.753846-6.444755-47.261538 0-32.462471 0.238695-33.894639 7.399534-49.171096 14.799068-31.507692 34.133333-45.113287 65.641025-47.022844 22.914685-1.432168 38.429837 3.341725 52.751516 15.992541 10.502564 9.547786 19.811655 25.062937 22.437296 37.713753 1.670862 8.115618 4.296503 6.922145-27.211189 11.696037-9.070396 1.193473-9.309091 1.193473-13.3669-9.309091-5.728671-14.799068-13.3669-21.243823-26.972494-22.437296-21.243823-2.148252-34.372028 12.650816-38.668532 43.20373-2.625641 19.095571 0 47.738928 5.489977 58.480186 6.68345 12.650816 17.186014 19.334266 30.314219 19.334266 6.68345 0 15.037762-1.670862 18.618182-3.580419 7.160839-3.58042 14.560373-16.231235 14.560373-24.824243 0-4.535198-1.193473-5.012587-17.902098-5.012587H1074.125874v-33.41725h73.995338v99.29697h-8.354312c-8.115618 0-8.593007-0.477389-11.218648-10.263869-1.432168-5.728671-2.864336-10.263869-3.58042-10.26387-0.477389 0-5.012587 3.10303-9.78648 7.160839-17.902098 14.321678-40.578089 19.095571-62.060606 13.128205zM33.417249 836.624709V713.69697l85.452681 0.477389 85.213986 0.716084 0.716084 23.392074 0.716084 23.15338H90.703963v57.286714h90.703962v42.965035H90.703963v47.500233c0 41.055478-0.477389 47.738928-3.819115 48.932401-2.148252 0.716084-15.037762 1.432168-28.643356 1.432168H33.417249v-122.927739zM237.501166 956.688112c-0.716084-1.670862-0.954779-56.809324-0.716084-122.45035l0.716084-119.347319 83.543123-0.716084c45.829371-0.238695 84.497902-0.238695 85.93007 0.477389 1.432168 0.477389 2.148252 9.78648 1.670862 23.869464l-0.716083 22.914685h-114.573427l0.716084 28.165968 0.716084 27.927273 44.874592 0.716083 44.635897 0.47739v42.965035l-44.635897 0.477389-44.874592 0.716084-0.716084 47.977622-0.477389 48.216317-27.449884 0.238695c-20.527739 0.238695-27.927273-0.238695-28.643356-2.625641zM435.379021 957.404196c-0.477389-0.477389-0.954779-42.248951-0.954779-92.61352v-91.658741l33.894639 0.716084 33.894639 0.716084 15.515151 53.228904c8.831702 30.314219 16.46993 52.751515 17.902098 52.274126 1.432168-0.477389 5.489977-10.979953 9.309091-23.392075 3.58042-12.412121 10.979953-36.04289 16.231236-52.751515l9.547785-30.552914H637.314685v183.317483l-18.379487 0.954778c-10.263869 0.716084-20.05035 0.716084-21.482517 0-2.386946-0.716084-3.10303-16.947319-3.103031-70.176223 0-53.944988-0.716084-68.982751-2.864335-68.266667-2.864336 0.954779-9.070396 20.05035-34.610723 105.741725-4.773893 15.753846-9.78648 29.83683-10.979953 31.507692-2.386946 3.341725-24.585548 2.864336-27.688578-0.716084-1.193473-1.193473-7.160839-19.334266-13.3669-40.339394-5.967366-21.005128-12.173427-40.816783-13.128205-44.158508-1.193473-3.341725-5.489977-16.947319-9.547786-30.314219-4.057809-13.605594-8.354312-24.585548-9.547785-24.585548-1.432168 0-2.386946 27.211189-2.386947 70.414919 0 38.668531-0.716084 70.414918-1.670862 70.653613-11.218648 0.716084-32.462471 0.716084-33.178555 0zM676.460606 957.404196c-0.477389-0.477389-0.954779-42.248951-0.954778-92.61352V773.370629h45.351981c53.944988 0 65.163636 1.909557 78.769231 13.844289 12.88951 10.979953 18.856876 24.108159 19.095571 41.294173 0 23.15338-10.025175 42.72634-27.449884 52.751515-8.115618 4.773893-13.844289 5.728671-40.578088 6.68345l-31.030303 1.193473-1.193474 34.372028-1.193473 34.133333-19.811655 0.47739c-10.979953 0-20.527739-0.238695-21.005128-0.716084z m88.317016-103.116084c14.082984-6.444755 16.947319-30.791608 5.012588-42.487646-5.489977-5.728671-8.115618-6.206061-29.83683-6.922144l-23.869464-0.954779v24.824243c0 13.844289 0.716084 25.779021 1.670863 26.495104 2.625641 2.864336 40.578089 1.909557 47.022843-0.954778zM848.082051 958.12028c-2.386946-0.954779-3.10303-21.959907-3.10303-93.090909V773.370629h131.282051v33.41725h-88.317016v40.578088h69.221445v33.41725h-69.221445v42.965035h88.317016v33.417249h-57.764102c-31.985082 0-60.151049 0.477389-62.77669 1.193473-2.625641 0.477389-6.206061 0.477389-7.638229-0.238694z" p-id="1583"></path></svg>